<svg width="70" height="70" viewBox="0 0 70 70" fill="none" xmlns="http://www.w3.org/2000/svg">
<g filter="url(#filter0_d_477_349)">
<path d="M18.125 60.75H9.25V51.875C9.25 51.2451 8.99978 50.641 8.55438 50.1956C8.10898 49.7502 7.50489 49.5 6.875 49.5C6.24511 49.5 5.64102 49.7502 5.19562 50.1956C4.75022 50.641 4.5 51.2451 4.5 51.875V63.125C4.5 63.7549 4.75022 64.359 5.19562 64.8044C5.64102 65.2498 6.24511 65.5 6.875 65.5H18.125C18.7549 65.5 19.359 65.2498 19.8044 64.8044C20.2498 64.359 20.5 63.7549 20.5 63.125C20.5 62.4951 20.2498 61.891 19.8044 61.4456C19.359 61.0002 18.7549 60.75 18.125 60.75ZM20 19.5C19.7239 19.5 19.5 19.7239 19.5 20V23.75C19.5 24.0261 19.7239 24.25 20 24.25H23.75C24.0261 24.25 24.25 24.0261 24.25 23.75V20C24.25 19.7239 24.0261 19.5 23.75 19.5H20ZM5.19562 5.19562C4.75022 5.64102 4.5 6.24511 4.5 6.875V18.125C4.5 18.7549 4.75022 19.359 5.19562 19.8044C5.64102 20.2498 6.24511 20.5 6.875 20.5C7.50489 20.5 8.10898 20.2498 8.55438 19.8044C8.99978 19.359 9.25 18.7549 9.25 18.125V9.25H18.125C18.7549 9.25 19.359 8.99978 19.8044 8.55438C20.2498 8.10898 20.5 7.50489 20.5 6.875C20.5 6.24511 20.2498 5.64102 19.8044 5.19562C19.359 4.75022 18.7549 4.5 18.125 4.5H6.875C6.24511 4.5 5.64102 4.75022 5.19562 5.19562ZM50.1956 5.19562C49.7502 5.64102 49.5 6.24511 49.5 6.875C49.5 7.50489 49.7502 8.10898 50.1956 8.55438C50.641 8.99978 51.2451 9.25 51.875 9.25H60.75V18.125C60.75 18.7549 61.0002 19.359 61.4456 19.8044C61.891 20.2498 62.4951 20.5 63.125 20.5C63.7549 20.5 64.359 20.2498 64.8044 19.8044C65.2498 19.359 65.5 18.7549 65.5 18.125V6.875C65.5 6.24511 65.2498 5.64102 64.8044 5.19562C64.359 4.75022 63.7549 4.5 63.125 4.5H51.875C51.2451 4.5 50.641 4.75022 50.1956 5.19562ZM64.8044 50.1956C64.359 49.7502 63.7549 49.5 63.125 49.5C62.4951 49.5 61.891 49.7502 61.4456 50.1956C61.0002 50.641 60.75 51.2451 60.75 51.875V60.75H51.875C51.2451 60.75 50.641 61.0002 50.1956 61.4456C49.7502 61.891 49.5 62.4951 49.5 63.125C49.5 63.7549 49.7502 64.359 50.1956 64.8044C50.641 65.2498 51.2451 65.5 51.875 65.5H63.125C63.7549 65.5 64.359 65.2498 64.8044 64.8044C65.2498 64.359 65.5 63.7549 65.5 63.125V51.875C65.5 51.2451 65.2498 50.641 64.8044 50.1956Z" fill="#0089EF" stroke="#3A2C60" stroke-linejoin="round"/>
<path d="M31.75 12.5C31.75 12.2239 31.5261 12 31.25 12H12.5C12.2239 12 12 12.2239 12 12.5V31.25C12 31.5261 12.2239 31.75 12.5 31.75H31.25C31.5261 31.75 31.75 31.5261 31.75 31.25V12.5ZM24.25 46.25C24.25 45.9739 24.0261 45.75 23.75 45.75H20C19.7239 45.75 19.5 45.9739 19.5 46.25V50C19.5 50.2761 19.7239 50.5 20 50.5H23.75C24.0261 50.5 24.25 50.2761 24.25 50V46.25ZM16.75 16.75H27V27H16.75V16.75Z" fill="#0089EF" stroke="#3A2C60" stroke-linejoin="round"/>
<path d="M31.75 38.75C31.75 38.4739 31.5261 38.25 31.25 38.25H12.5C12.2239 38.25 12 38.4739 12 38.75V57.5C12 57.7761 12.2239 58 12.5 58H31.25C31.5261 58 31.75 57.7761 31.75 57.5V38.75ZM46.25 19.5C45.9739 19.5 45.75 19.7239 45.75 20V23.75C45.75 24.0261 45.9739 24.25 46.25 24.25H50C50.2761 24.25 50.5 24.0261 50.5 23.75V20C50.5 19.7239 50.2761 19.5 50 19.5H46.25ZM16.75 43H27V53.25H16.75V43Z" fill="#0089EF" stroke="#3A2C60" stroke-linejoin="round"/>
<path d="M38.75 12C38.4739 12 38.25 12.2239 38.25 12.5V31.25C38.25 31.5261 38.4739 31.75 38.75 31.75H57.5C57.7761 31.75 58 31.5261 58 31.25V12.5C58 12.2239 57.7761 12 57.5 12H38.75ZM35 34.5C34.7239 34.5 34.5 34.7239 34.5 35V42.5C34.5 42.7761 34.7239 43 35 43H38.25V45.75H35C34.7239 45.75 34.5 45.9739 34.5 46.25V50C34.5 50.2761 34.7239 50.5 35 50.5H42.5C42.7761 50.5 43 50.2761 43 50V43H45.75V50C45.75 50.2761 45.9739 50.5 46.25 50.5H50C50.2761 50.5 50.5 50.2761 50.5 50V46.75H57.5C57.7761 46.75 58 46.5261 58 46.25V42.5C58 42.2239 57.7761 42 57.5 42H46.75V35C46.75 34.7239 46.5261 34.5 46.25 34.5H35ZM42 42H39.25V39.25H42V42ZM58 50C58 49.7239 57.7761 49.5 57.5 49.5H53.75C53.4739 49.5 53.25 49.7239 53.25 50V53.25H46.25C45.9739 53.25 45.75 53.4739 45.75 53.75V57.5C45.75 57.7761 45.9739 58 46.25 58H57.5C57.7761 58 58 57.7761 58 57.5V50ZM42.5 58C42.7761 58 43 57.7761 43 57.5V53.75C43 53.4739 42.7761 53.25 42.5 53.25H35C34.7239 53.25 34.5 53.4739 34.5 53.75V57.5C34.5 57.7761 34.7239 58 35 58H42.5ZM53.25 27H43V16.75H53.25V27Z" fill="#0089EF" stroke="#3A2C60" stroke-linejoin="round"/>
<path d="M49.5 38.75C49.5 39.0261 49.7239 39.25 50 39.25H57.5C57.7761 39.25 58 39.0261 58 38.75V35C58 34.7239 57.7761 34.5 57.5 34.5H50C49.7239 34.5 49.5 34.7239 49.5 35V38.75Z" fill="#0089EF" stroke="#3A2C60" stroke-linejoin="round"/>
</g>
<defs>
<filter id="filter0_d_477_349" x="4" y="4" width="63" height="64" filterUnits="userSpaceOnUse" color-interpolation-filters="sRGB">
<feFlood flood-opacity="0" result="BackgroundImageFix"/>
<feColorMatrix in="SourceAlpha" type="matrix" values="0 0 0 0 0 0 0 0 0 0 0 0 0 0 0 0 0 0 127 0" result="hardAlpha"/>
<feOffset dx="1" dy="2"/>
<feComposite in2="hardAlpha" operator="out"/>
<feColorMatrix type="matrix" values="0 0 0 0 0 0 0 0 0 0 0 0 0 0 0 0 0 0 0.25 0"/>
<feBlend mode="normal" in2="BackgroundImageFix" result="effect1_dropShadow_477_349"/>
<feBlend mode="normal" in="SourceGraphic" in2="effect1_dropShadow_477_349" result="shape"/>
</filter>
</defs>
</svg>
