<svg width="68" height="68" viewBox="0 0 68 68" fill="none" xmlns="http://www.w3.org/2000/svg">
<g filter="url(#filter0_d_477_334)">
<path d="M46.75 34C46.75 32.0734 46.58 30.2034 46.3533 28.3334H55.93C56.3833 30.1467 56.6667 32.045 56.6667 34C56.6667 35.0484 56.5817 36.0684 56.44 37.06C58.395 37.3434 60.2083 37.9667 61.88 38.8734C62.1633 37.2867 62.3333 35.6717 62.3333 34C62.3333 18.4167 49.5833 5.66669 34 5.66669C18.3317 5.66669 5.66666 18.4167 5.66666 34C5.66666 49.5834 18.4167 62.3334 34 62.3334C35.6717 62.3334 37.2867 62.1634 38.8733 61.88C37.5276 59.412 36.8259 56.6444 36.8333 53.8334C36.8333 53.0117 36.9183 52.2184 37.0317 51.425C36.125 53.21 35.1333 54.9384 34 56.5534C31.6483 53.1534 29.75 49.385 28.5883 45.3334H39.1283C40.83 42.3764 43.3888 40.0053 46.4667 38.5334C46.6367 37.0317 46.75 35.53 46.75 34ZM34 11.4184C36.3517 14.8184 38.25 18.615 39.4117 22.6667H28.5883C29.75 18.615 31.6483 14.8184 34 11.4184ZM12.07 39.6667C11.6167 37.8534 11.3333 35.955 11.3333 34C11.3333 32.045 11.6167 30.1467 12.07 28.3334H21.6467C21.42 30.2034 21.25 32.0734 21.25 34C21.25 35.9267 21.42 37.7967 21.6467 39.6667H12.07ZM14.3933 45.3334H22.6667C23.6583 48.875 24.9333 52.275 26.6333 55.42C21.4728 53.6397 17.1271 50.0586 14.3933 45.3334ZM22.6667 22.6667H14.3933C17.1101 17.9271 21.4619 14.3409 26.6333 12.58C24.9333 15.725 23.6583 19.125 22.6667 22.6667ZM40.63 39.6667H27.37C27.0867 37.7967 26.9167 35.9267 26.9167 34C26.9167 32.0734 27.0867 30.175 27.37 28.3334H40.63C40.885 30.175 41.0833 32.0734 41.0833 34C41.0833 35.9267 40.885 37.7967 40.63 39.6667ZM41.3383 12.58C46.5517 14.365 50.8867 17.9634 53.6067 22.6667H45.2483C44.3615 19.1575 43.0484 15.7701 41.3383 12.58ZM63.75 48.875L50.2917 62.3334L42.5 53.8334L45.7867 50.5467L50.2917 55.0517L60.4633 44.88L63.75 48.875Z" fill="#0089EF"/>
<path d="M36.1401 50.9722C35.4768 52.2781 34.7714 53.5447 34.0015 54.7523C32.3215 52.132 30.9284 49.3129 29.9433 46.3334H39.1283C39.4861 46.3334 39.8166 46.1422 39.995 45.8321C41.5958 43.0506 44.0028 40.8201 46.8981 39.4355C47.2091 39.2868 47.4215 38.9884 47.4603 38.6458C47.633 37.1201 47.75 35.579 47.75 34C47.75 32.4071 47.6371 30.8589 47.4742 29.3334H55.1375C55.4691 30.8478 55.6667 32.4083 55.6667 34C55.6667 34.9942 55.5861 35.9665 55.45 36.9186C55.372 37.4646 55.7508 37.9706 56.2966 38.0497C58.13 38.3154 59.8309 38.8996 61.4032 39.7524C61.6856 39.9055 62.0243 39.9137 62.3137 39.7744C62.6031 39.6351 62.808 39.3653 62.8644 39.0491C63.1563 37.4146 63.3333 35.7401 63.3333 34C63.3333 17.8644 50.1356 4.66669 34 4.66669C17.7774 4.66669 4.66666 17.8664 4.66666 34C4.66666 50.1356 17.8644 63.3334 34 63.3334C35.7401 63.3334 37.4146 63.1563 39.0491 62.8645C39.3657 62.8079 39.6357 62.6026 39.7749 62.3127C39.914 62.0228 39.9052 61.6836 39.7513 61.4013C38.486 59.0809 37.8264 56.4789 37.8333 53.836V53.8334C37.8333 53.0793 37.9113 52.3386 38.0216 51.5664C38.0908 51.0821 37.7994 50.6188 37.3328 50.4715C36.8663 50.3241 36.3616 50.5359 36.1401 50.9722ZM64.4571 49.5821C64.8211 49.2181 64.8493 48.6372 64.5222 48.2397L61.2356 44.2447C61.0564 44.0269 60.7935 43.8949 60.5118 43.8812C60.2301 43.8675 59.9557 43.9735 59.7562 44.1729L50.2917 53.6375L46.4938 49.8396C46.1032 49.4491 45.4701 49.4491 45.0795 49.8396L41.7929 53.1262C41.4143 53.5048 41.4011 54.1144 41.7628 54.5091L49.5545 63.0091C49.7388 63.2101 49.9972 63.3272 50.2699 63.3331C50.5426 63.339 50.8059 63.2333 50.9988 63.0405L64.4571 49.5821ZM29.943 21.6667C30.9281 18.6824 32.3211 15.8464 34 13.2229C35.6788 15.8464 37.0718 18.6824 38.057 21.6667H29.943ZM20.5257 38.6667H12.8625C12.5309 37.1522 12.3333 35.5917 12.3333 34C12.3333 32.4083 12.5309 30.8478 12.8625 29.3334H20.5257C20.3628 30.8589 20.25 32.4071 20.25 34C20.25 35.5929 20.3628 37.1412 20.5257 38.6667ZM21.9128 46.3334C22.6316 48.7893 23.4935 51.1838 24.5471 53.4763C21.2065 51.8518 18.3337 49.3932 16.2113 46.3334H21.9128ZM24.5531 14.5106C23.4968 16.8071 22.633 19.206 21.9128 21.6667H16.2032C18.3197 18.5927 21.1998 16.1276 24.5531 14.5106ZM40.0833 34C40.0833 35.57 39.9469 37.1102 39.7524 38.6667H28.2381C28.0343 37.1215 27.9167 35.5779 27.9167 34C27.9167 32.4241 28.034 30.8633 28.2369 29.3334H39.7536C39.9473 30.8746 40.0833 32.4324 40.0833 34ZM46.0201 21.6667C45.3549 19.2127 44.4847 16.8201 43.4192 14.514C46.7924 16.1423 49.6697 18.6107 51.789 21.6667H46.0201Z" stroke="#3A2C60" stroke-width="2" stroke-linejoin="round"/>
</g>
<defs>
<filter id="filter0_d_477_334" x="3.66666" y="3.66669" width="63.0833" height="62.6667" filterUnits="userSpaceOnUse" color-interpolation-filters="sRGB">
<feFlood flood-opacity="0" result="BackgroundImageFix"/>
<feColorMatrix in="SourceAlpha" type="matrix" values="0 0 0 0 0 0 0 0 0 0 0 0 0 0 0 0 0 0 127 0" result="hardAlpha"/>
<feOffset dx="1" dy="2"/>
<feComposite in2="hardAlpha" operator="out"/>
<feColorMatrix type="matrix" values="0 0 0 0 0 0 0 0 0 0 0 0 0 0 0 0 0 0 0.3 0"/>
<feBlend mode="normal" in2="BackgroundImageFix" result="effect1_dropShadow_477_334"/>
<feBlend mode="normal" in="SourceGraphic" in2="effect1_dropShadow_477_334" result="shape"/>
</filter>
</defs>
</svg>
